HIERARCHY
ROOT Bone
{
	OFFSET 0.000000 0.000000 1.292901
	CHANNELS 6 Xposition Yposition Zposition Xrotation Yrotation Zrotation
	JOINT Bone.001
	{
		OFFSET 0.000000 0.000000 1.000000
		CHANNELS 3 Xrotation Yrotation Zrotation
		End Site
		{
			OFFSET 0.000000 0.000000 1.002692
		}
	}
}
MOTION
Frames: 114
Frame Time: 0.041667
0.000000 0.000000 1.292901 -0.000000 0.000000 -0.000000 76.131768 17.566932 8.890675 
0.000000 0.000000 1.292901 -0.000000 0.000000 -0.000000 75.220122 17.323590 8.939800 
0.000000 0.000000 1.292901 -0.000000 0.000000 -0.000000 73.755811 16.930466 9.010212 
0.000000 0.000000 1.292901 -0.000000 0.000000 -0.000000 71.783779 16.397063 9.088413 
0.000000 0.000000 1.292901 -0.000000 0.000000 -0.000000 69.348570 15.733045 9.158498 
0.000000 0.000000 1.292901 -0.000000 0.000000 -0.000000 66.494077 14.948905 9.203199 
0.000000 0.000000 1.292901 -0.000000 0.000000 -0.000000 63.263377 14.056528 9.204868 
0.000000 0.000000 1.292901 -0.000000 0.000000 -0.000000 59.698517 13.069604 9.146442 
0.000000 0.000000 1.292901 -0.000000 0.000000 -0.000000 55.840355 12.003815 9.012282 
0.000000 0.000000 1.292901 -0.000000 0.000000 -0.000000 51.728103 10.876724 8.788957 
0.000000 0.000000 1.292901 -0.000000 0.000000 -0.000000 47.399170 9.707494 8.465849 
0.000000 0.000000 1.292901 -0.000000 0.000000 -0.000000 42.888674 8.516322 8.035548 
0.000000 0.000000 1.292901 -0.000000 0.000000 -0.000000 38.229143 7.323774 7.494047 
0.000000 0.000000 1.292901 -0.000000 0.000000 -0.000000 33.450086 6.150030 6.840672 
0.000000 0.000000 1.292901 -0.000000 0.000000 -0.000000 28.577704 5.014174 6.077813 
0.000000 0.000000 1.292901 -0.000000 0.000000 -0.000000 23.634411 3.933567 5.210437 
0.000000 0.000000 1.292901 -0.000000 0.000000 -0.000000 18.638517 2.923409 4.245497 
0.000000 0.000000 1.292901 -0.000000 0.000000 -0.000000 13.603814 1.996519 3.191232 
0.000000 0.000000 1.292901 -0.000000 0.000000 -0.000000 8.539171 1.163327 2.056458 
0.000000 0.000000 1.292901 -0.000000 0.000000 -0.000000 3.448095 0.432097 0.849886 
0.000000 0.000000 1.292901 -0.000000 0.000000 -0.000000 -1.670640 -0.190525 -0.420204 
0.000000 0.000000 1.292901 -0.000000 0.000000 -0.000000 -6.811997 -0.698039 -1.743411 
0.000000 0.000000 1.292901 -0.000000 0.000000 -0.000000 -11.962300 -1.084677 -3.106400 
0.000000 0.000000 1.292901 -0.000000 0.000000 -0.000000 -17.101559 -1.346556 -4.493489 
0.000000 0.000000 1.292901 -0.000000 0.000000 -0.000000 -22.204117 -1.482487 -5.887085 
0.000000 0.000000 1.292901 -0.000000 0.000000 -0.000000 -27.239476 -1.494620 -7.268327 
0.000000 0.000000 1.292901 -0.000000 0.000000 -0.000000 -32.173381 -1.388875 -8.617981 
0.000000 0.000000 1.292901 -0.000000 0.000000 -0.000000 -36.968928 -1.175069 -9.917350 
0.000000 0.000000 1.292901 -0.000000 0.000000 -0.000000 -41.587809 -0.866742 -11.149262 
0.000000 0.000000 1.292901 -0.000000 0.000000 -0.000000 -45.991308 -0.480678 -12.298836 
0.000000 0.000000 1.292901 -0.000000 0.000000 -0.000000 -50.141143 -0.036211 -13.354045 
0.000000 0.000000 1.292901 -0.000000 0.000000 -0.000000 -54.000142 0.445610 -14.305993 
0.000000 0.000000 1.292901 -0.000000 0.000000 -0.000000 -57.532405 0.942894 -15.148883 
0.000000 0.000000 1.292901 -0.000000 0.000000 -0.000000 -60.703306 1.433718 -15.879649 
0.000000 0.000000 1.292901 -0.000000 0.000000 -0.000000 -63.479327 1.896806 -16.497437 
0.000000 0.000000 1.292901 -0.000000 0.000000 -0.000000 -65.827417 2.312071 -17.002822 
0.000000 0.000000 1.292901 -0.000000 0.000000 -0.000000 -67.714564 2.660994 -17.396941 
0.000000 0.000000 1.292901 -0.000000 0.000000 -0.000000 -69.107000 2.926894 -17.680573 
0.000000 0.000000 1.292901 -0.000000 0.000000 -0.000000 -69.969715 3.095160 -17.853162 
0.000000 0.000000 1.292901 -0.000000 0.000000 -0.000000 -70.265858 3.153531 -17.911840 
0.000000 0.000000 1.292901 -0.000000 0.000000 -0.000000 -70.265858 3.153531 -17.911840 
0.000000 0.000000 1.292901 -0.000000 0.000000 -0.000000 -70.265858 3.153531 -17.911840 
0.000000 0.000000 1.292901 -0.000000 0.000000 -0.000000 -70.265858 3.153531 -17.911840 
0.000000 0.000000 1.292901 -0.000000 0.000000 -0.000000 -70.265858 3.153531 -17.911840 
0.000000 0.000000 1.292901 -0.000000 0.000000 -0.000000 -70.265858 3.153531 -17.911840 
0.000000 0.000000 1.292901 -0.000000 0.000000 -0.000000 -70.265858 3.153531 -17.911840 
0.000000 0.000000 1.292901 -0.000000 0.000000 -0.000000 -70.265858 3.153531 -17.911840 
0.000000 0.000000 1.292901 -0.000000 0.000000 -0.000000 -70.265858 3.153531 -17.911840 
0.000000 0.000000 1.292901 -0.000000 0.000000 -0.000000 -70.265858 3.153531 -17.911840 
0.000000 0.000000 1.292901 -0.000000 0.000000 -0.000000 -70.265858 3.153531 -17.911840 
0.000000 0.000000 1.292901 -0.000000 0.000000 -0.000000 -70.265858 3.153531 -17.911840 
0.000000 0.000000 1.292901 -0.000000 0.000000 -0.000000 -70.265858 3.153531 -17.911840 
0.000000 0.000000 1.292901 -0.000000 0.000000 -0.000000 -70.265858 3.153531 -17.911840 
0.000000 0.000000 1.292901 -0.000000 0.000000 -0.000000 -70.265858 3.153531 -17.911840 
0.000000 0.000000 1.292901 -0.000000 0.000000 -0.000000 -70.265858 3.153531 -17.911840 
0.000000 0.000000 1.292901 -0.000000 0.000000 -0.000000 -70.265858 3.153531 -17.911840 
0.000000 0.000000 1.292901 -0.000000 0.000000 -0.000000 -70.265858 3.153531 -17.911840 
0.000000 0.000000 1.292901 -0.000000 0.000000 -0.000000 -70.265858 3.153531 -17.911840 
0.000000 0.000000 1.292901 -0.000000 0.000000 -0.000000 -70.265858 3.153531 -17.911840 
0.000000 0.000000 1.292901 -0.000000 0.000000 -0.000000 -70.265858 3.153531 -17.911840 
0.000000 0.000000 1.292901 -0.000000 0.000000 -0.000000 -70.265858 3.153531 -17.911840 
0.000000 0.000000 1.292901 -0.000000 0.000000 -0.000000 -70.265858 3.153531 -17.911840 
0.000000 0.000000 1.292901 -0.000000 0.000000 -0.000000 -70.265858 3.153531 -17.911840 
0.000000 0.000000 1.292901 -0.000000 0.000000 -0.000000 -70.265858 3.153531 -17.911840 
0.000000 0.000000 1.292901 -0.000000 0.000000 -0.000000 -70.265858 3.153531 -17.911840 
0.000000 0.000000 1.292901 -0.000000 0.000000 -0.000000 -70.265858 3.153531 -17.911840 
0.000000 0.000000 1.292901 -0.000000 0.000000 -0.000000 -70.265858 3.153531 -17.911840 
0.000000 0.000000 1.292901 -0.000000 0.000000 -0.000000 -70.265858 3.153531 -17.911840 
0.000000 0.000000 1.292901 -0.000000 0.000000 -0.000000 -70.265858 3.153531 -17.911840 
0.000000 0.000000 1.292901 -0.000000 0.000000 -0.000000 -70.265858 3.153531 -17.911840 
0.000000 0.000000 1.292901 -0.000000 0.000000 -0.000000 -70.265858 3.153531 -17.911840 
0.000000 0.000000 1.292901 -0.000000 0.000000 -0.000000 -70.265858 3.153531 -17.911840 
0.000000 0.000000 1.292901 -0.000000 0.000000 -0.000000 -70.265858 3.153531 -17.911840 
0.000000 0.000000 1.292901 -0.000000 0.000000 -0.000000 -70.265858 3.153531 -17.911840 
0.000000 0.000000 1.292901 -0.000000 0.000000 -0.000000 -70.265858 3.153531 -17.911840 
0.000000 0.000000 1.292901 -0.000000 0.000000 -0.000000 -70.265858 3.153531 -17.911840 
0.000000 0.000000 1.292901 -0.000000 0.000000 -0.000000 -70.265858 3.153531 -17.911840 
0.000000 0.000000 1.292901 -0.000000 0.000000 -0.000000 -70.265858 3.153531 -17.911840 
0.000000 0.000000 1.292901 -0.000000 0.000000 -0.000000 -70.265858 3.153531 -17.911840 
0.000000 0.000000 1.292901 -0.000000 0.000000 -0.000000 -70.265858 3.153531 -17.911840 
0.000000 0.000000 1.292901 -0.000000 0.000000 -0.000000 -70.265858 3.153531 -17.911840 
0.000000 0.000000 1.292901 -0.000000 0.000000 -0.000000 -70.265858 3.153531 -17.911840 
0.000000 0.000000 1.292901 -0.000000 0.000000 -0.000000 -70.265858 3.153531 -17.911840 
0.000000 0.000000 1.292901 -0.000000 0.000000 -0.000000 -70.265858 3.153531 -17.911840 
0.000000 0.000000 1.292901 -0.000000 0.000000 -0.000000 -70.265858 3.153531 -17.911840 
0.000000 0.000000 1.292901 -0.000000 0.000000 -0.000000 -70.265858 3.153531 -17.911840 
0.000000 0.000000 1.292901 -0.000000 0.000000 -0.000000 -70.265858 3.153531 -17.911840 
0.000000 0.000000 1.292901 -0.000000 0.000000 -0.000000 -70.265858 3.153531 -17.911840 
0.000000 0.000000 1.292901 -0.000000 0.000000 -0.000000 -70.265858 3.153531 -17.911840 
0.000000 0.000000 1.292901 -0.000000 0.000000 -0.000000 -70.265858 3.153531 -17.911840 
0.000000 0.000000 1.292901 -0.000000 0.000000 -0.000000 -70.265858 3.153531 -17.911840 
0.000000 0.000000 1.292901 -0.000000 0.000000 -0.000000 -70.265858 3.153531 -17.911840 
0.000000 0.000000 1.292901 -0.000000 0.000000 -0.000000 -70.265858 3.153531 -17.911840 
0.000000 0.000000 1.292901 -0.000000 0.000000 -0.000000 -70.265858 3.153531 -17.911840 
0.000000 0.000000 1.292901 -0.000000 0.000000 -0.000000 -70.265858 3.153531 -17.911840 
0.000000 0.000000 1.292901 -0.000000 0.000000 -0.000000 -70.265858 3.153531 -17.911840 
0.000000 0.000000 1.292901 -0.000000 0.000000 -0.000000 -70.265858 3.153531 -17.911840 
0.000000 0.000000 1.292901 -0.000000 0.000000 -0.000000 -70.265858 3.153531 -17.911840 
0.000000 0.000000 1.292901 -0.000000 0.000000 -0.000000 -70.265858 3.153531 -17.911840 
0.000000 0.000000 1.292901 -0.000000 0.000000 -0.000000 -70.265858 3.153531 -17.911840 
0.000000 0.000000 1.292901 -0.000000 0.000000 -0.000000 -70.265858 3.153531 -17.911840 
0.000000 0.000000 1.292901 -0.000000 0.000000 -0.000000 -70.265858 3.153531 -17.911840 
0.000000 0.000000 1.292901 -0.000000 0.000000 -0.000000 -70.265858 3.153531 -17.911840 
0.000000 0.000000 1.292901 -0.000000 0.000000 -0.000000 -70.265858 3.153531 -17.911840 
0.000000 0.000000 1.292901 -0.000000 0.000000 -0.000000 -70.265858 3.153531 -17.911840 
0.000000 0.000000 1.292901 -0.000000 0.000000 -0.000000 -70.265858 3.153531 -17.911840 
0.000000 0.000000 1.292901 -0.000000 0.000000 -0.000000 -70.265858 3.153531 -17.911840 
0.000000 0.000000 1.292901 -0.000000 0.000000 -0.000000 -70.265858 3.153531 -17.911840 
0.000000 0.000000 1.292901 -0.000000 0.000000 -0.000000 -70.265858 3.153531 -17.911840 
0.000000 0.000000 1.292901 -0.000000 0.000000 -0.000000 -70.265858 3.153531 -17.911840 
0.000000 0.000000 1.292901 -0.000000 0.000000 -0.000000 -70.265858 3.153531 -17.911840 
0.000000 0.000000 1.292901 -0.000000 0.000000 -0.000000 -70.265858 3.153531 -17.911840 
0.000000 0.000000 1.292901 -0.000000 0.000000 -0.000000 -70.265858 3.153531 -17.911840 
0.000000 0.000000 1.292901 -0.000000 0.000000 -0.000000 -70.265858 3.153531 -17.911840 
